<svg id="burger-shop-01" xmlns="http://www.w3.org/2000/svg" xmlns:xlink="http://www.w3.org/1999/xlink" viewBox="0 0 675 667" shape-rendering="geometricPrecision" text-rendering="geometricPrecision"><style><![CDATA[#burger-shop-01-circle1_to {animation: burger-shop-01-circle1_to__to 3000ms linear infinite normal forwards}@keyframes burger-shop-01-circle1_to__to { 0% {transform: translate(62.050001px,432.980013px)} 50% {transform: translate(62.050001px,492.980013px)} 100% {transform: translate(62.050001px,432.980013px)} }#burger-shop-01-circle2_to {animation: burger-shop-01-circle2_to__to 3000ms linear infinite normal forwards}@keyframes burger-shop-01-circle2_to__to { 0% {transform: translate(596.330048px,85.739998px)} 50% {transform: translate(596.330048px,145.739998px)} 100% {transform: translate(596.330048px,85.739998px)} }#burger-shop-01-copy-of-circle_to {animation: burger-shop-01-copy-of-circle_to__to 3000ms linear infinite normal forwards}@keyframes burger-shop-01-copy-of-circle_to__to { 0% {transform: translate(154.799039px,548.538446px)} 50% {transform: translate(154.799039px,568.538446px)} 100% {transform: translate(154.799039px,548.538446px)} }#burger-shop-01-path1_to {animation: burger-shop-01-path1_to__to 3000ms linear infinite normal forwards}@keyframes burger-shop-01-path1_to__to { 0% {transform: translate(341.932343px,295.162712px)} 50% {transform: translate(341.932343px,335.162712px)} 100% {transform: translate(341.932343px,295.162712px)} }#burger-shop-01-path2_to {animation: burger-shop-01-path2_to__to 3000ms linear infinite normal forwards}@keyframes burger-shop-01-path2_to__to { 0% {transform: translate(35.025000px,233.443703px)} 50% {transform: translate(35.025000px,254.716645px)} 100% {transform: translate(35.025000px,234.716645px)} }#burger-shop-01-bottom-bun_to {animation: burger-shop-01-bottom-bun_to__to 3000ms linear infinite normal forwards}@keyframes burger-shop-01-bottom-bun_to__to { 0% {transform: translate(354.614609px,543.130554px)} 50% {transform: translate(354.614609px,503.130554px)} 100% {transform: translate(354.614609px,543.130554px)} }#burger-shop-01-lettus_to {animation: burger-shop-01-lettus_to__to 3000ms linear infinite normal forwards}@keyframes burger-shop-01-lettus_to__to { 0% {transform: translate(311.151718px,489.303818px)} 50% {transform: translate(311.151718px,469.303818px)} 100% {transform: translate(311.151718px,489.303818px)} }#burger-shop-01-greenpapper_to {animation: burger-shop-01-greenpapper_to__to 3000ms linear infinite normal forwards}@keyframes burger-shop-01-greenpapper_to__to { 0% {transform: translate(351.350037px,483.135986px)} 50% {transform: translate(351.350037px,453.135986px)} 100% {transform: translate(351.350037px,483.135986px)} }#burger-shop-01-tomatoo_to {animation: burger-shop-01-tomatoo_to__to 3000ms linear infinite normal forwards}@keyframes burger-shop-01-tomatoo_to__to { 0% {transform: translate(392.666962px,454.278442px)} 50% {transform: translate(392.666962px,434.278442px)} 100% {transform: translate(392.666962px,454.278442px)} }#burger-shop-01-patty_to {animation: burger-shop-01-patty_to__to 3000ms linear infinite normal forwards}@keyframes burger-shop-01-patty_to__to { 0% {transform: translate(349.493958px,320.160789px)} 50% {transform: translate(349.493958px,315.160789px)} 100% {transform: translate(349.493958px,320.160789px)} }#burger-shop-01-cheese_to {animation: burger-shop-01-cheese_to__to 3000ms linear infinite normal forwards}@keyframes burger-shop-01-cheese_to__to { 0% {transform: translate(349.371719px,257.353348px)} 50% {transform: translate(349.371719px,267.353348px)} 100% {transform: translate(349.371719px,257.353348px)} }#burger-shop-01-top-bun_to {animation: burger-shop-01-top-bun_to__to 3000ms linear infinite normal forwards}@keyframes burger-shop-01-top-bun_to__to { 0% {transform: translate(347.230850px,117.998203px)} 50% {transform: translate(347.230850px,147.998203px)} 100% {transform: translate(347.230850px,117.998203px)} }]]></style><g id="burger-shop-01-background"><g id="burger-shop-01-circle1_to" transform="translate(62.050001,432.980013)"><circle id="burger-shop-01-circle1" r="18.610000" transform="translate(-0.000001,-0.000013)" fill="rgb(249,233,167)" stroke="none" stroke-width="1"/></g><g id="burger-shop-01-circle2_to" transform="translate(596.330048,85.739998)"><circle id="burger-shop-01-circle2" r="18.610000" transform="translate(-0.000048,0.000002)" fill="rgb(249,233,167)" stroke="none" stroke-width="1"/></g><g id="burger-shop-01-copy-of-circle_to" transform="translate(154.799039,548.538446)"><circle id="burger-shop-01-copy-of-circle" r="37.033076" transform="translate(18.423028,17.063177)" fill="rgb(249,233,167)" stroke="none" stroke-width="1"/></g><g id="burger-shop-01-path1_to" transform="translate(341.932343,295.162712)"><path id="burger-shop-01-path1" d="M43.290000,56C41.767158,58.967029,40.431221,62.026324,39.290000,65.160000C27.710000,96.870000,34.440000,131.630000,46.850000,161.680000C55.090000,181.680000,88.240000,217.340000,88.270000,237.770000C88.340000,274.870000,25.270000,283.520000,36.270000,329.890000C68.350000,465.160000,371.070000,569.240000,524.190000,577C677.310000,584.760000,661.770000,453.750000,628.680000,378.230000C595.590000,302.710000,699.150000,166.930000,538.460000,167C407.800000,167,384.680000,185,289.680000,102C245,63,192.850000,25.850000,137.490000,14.810000C103.690000,8.070000,61.880000,19.740000,43.290000,56Z" transform="translate(-341.932343,-295.162712)" fill="rgb(249,233,167)" fill-rule="evenodd" stroke="none" stroke-width="1"/></g><g id="burger-shop-01-path2_to" transform="translate(35.025000,233.443703)"><path id="burger-shop-01-path2" d="M62.050000,234.710000C62.050000,248.420000,49.950000,259.540000,35.050000,259.540000C20.150000,259.540000,8,248.420000,8,234.710000C8,221,21.470000,222.380000,35,209.890000C45.710000,200.050000,62.050000,221,62.050000,234.710000Z" transform="translate(-35.025000,-233.443703)" fill="rgb(249,233,167)" fill-rule="evenodd" stroke="none" stroke-width="1"/></g></g><g id="burger-shop-01-bottom-bun_to" transform="translate(354.614609,543.130554)"><g id="burger-shop-01-bottom-bun" transform="translate(-354.614609,-543.130554)"><path id="burger-shop-01-path3" d="M514.890000,498.480000C527.710000,555.190000,469.240000,627.400000,381.430000,647.270000C293.620000,667.140000,209.750000,627.110000,196.920000,570.400000Z" fill="rgb(190,116,27)" fill-rule="evenodd" stroke="none" stroke-width="1"/><path id="burger-shop-01-path4" d="M508.600000,495.600000C513.410000,517.600000,506.970000,540.460000,496.200000,559.710000C482.910000,583.490000,462.790000,603.190000,439.870000,617.710000C385.260000,652.290000,313.520000,657.010000,256.270000,625.810000C230.820000,611.940000,206.730000,590.020000,199.880000,560.810000L196.390000,567L304.160000,544L475.700000,507.420000L514.760000,499.090000C521.050000,497.750000,518.380000,488.090000,512.100000,489.450000L404.330000,512.450000L232.790000,549L193.730000,557.320000C191.020000,557.900000,189.650000,560.970000,190.240000,563.470000C196.630000,590.720000,216.960000,612.530000,239.770000,627.570000C267.770000,646.060000,301.590000,655.750000,335.050000,656.740000C399.270000,658.640000,465.560000,626.650000,500.500000,572.010000C515.340000,548.800000,524.260000,520.440000,518.250000,492.940000C516.870000,486.660000,507.230000,489.320000,508.600000,495.600000Z" fill="rgb(97,0,0)" stroke="none" stroke-width="1"/><path id="burger-shop-01-path5" d="M197.560000,570.260000L514.250000,498.610000C519.180000,553.610000,462.380000,619.250000,379.340000,638.030000C296.300000,656.810000,216.790000,622.030000,197.560000,570.260000Z" fill="rgb(173,104,31)" fill-rule="evenodd" stroke="none" stroke-width="1"/><path id="burger-shop-01-path6" d="M334.940000,441.870000C422.740000,422,502.460000,443.610000,513,490.160000C523.540000,536.710000,460.890000,590.500000,373.090000,610.370000C285.290000,630.240000,205.560000,608.620000,195.090000,562.080000C184.620000,515.540000,247.210000,461.730000,334.990000,441.870000Z" fill="rgb(242,195,65)" fill-rule="evenodd" stroke="none" stroke-width="1"/><path id="burger-shop-01-path7" d="M334.940000,441.870000C422.740000,422,502.460000,443.610000,513,490.160000C515.650000,501.920000,513.630000,514.160000,507.720000,526.160000C483.140000,552.620000,440.530000,575.700000,389.400000,587.270000C301.590000,607.140000,221.900000,585.520000,211.400000,538.980000C208.750000,527.220000,210.770000,514.980000,216.680000,502.980000C241.260000,476.510000,283.870000,453.420000,334.980000,441.870000Z" fill="rgb(235,164,24)" fill-rule="evenodd" stroke="none" stroke-width="1"/><path id="burger-shop-01-path8" d="M336.260000,446.690000C366.740000,439.880000,398.690000,437.150000,429.750000,441.490000C452.440000,444.660000,477.260000,451.560000,494.240000,467.820000C507.590000,480.620000,512.320000,498.260000,506.570000,515.900000C499.700000,536.980000,481.840000,553.740000,464.210000,566.190000C440,583.300000,412.090000,595,383.500000,602.650000C352.740000,610.870000,320.500000,614.650000,288.730000,611.900000C253.030000,608.900000,189.980000,591.050000,199.730000,542.810000C203.960000,521.980000,219.610000,505.070000,235.650000,492.160000C258.280000,473.960000,285.510000,461.420000,313.110000,452.870000C320.740000,450.510000,328.460000,448.470000,336.240000,446.690000C342.510000,445.250000,339.860000,435.610000,333.590000,437.040000C301.850000,444.320000,270.590000,456.190000,243.360000,474.260000C222.990000,487.790000,203.210000,505.520000,193.700000,528.580000C185.870000,547.580000,187.870000,568.500000,200.700000,584.820000C215.700000,603.950000,240.570000,613.530000,263.700000,618.320000C295.770000,624.960000,329.230000,623.690000,361.320000,617.860000C393.990000,611.930000,426.260000,600.940000,454.930000,584.050000C490.110000,563.330000,538.560000,518.490000,511.660000,473.610000C499.530000,453.360000,476.260000,442.240000,454.270000,436.290000C423.820000,428.040000,391.390000,427.980000,360.270000,432.220000Q346.810000,434.060000,333.570000,437.040000C327.330000,438.450000,330,448.090000,336.260000,446.690000Z" fill="rgb(97,0,0)" stroke="none" stroke-width="1"/></g></g><g id="burger-shop-01-lettus_to" transform="translate(311.151718,489.303818)"><g id="burger-shop-01-lettus" transform="translate(-311.151718,-489.303818)"><path id="burger-shop-01-path9" d="M426.770000,400.050000C426.770000,400.050000,398.260000,388.850000,374.440000,403.790000C350.620000,418.730000,282.900000,431.790000,282.900000,431.790000C282.900000,431.790000,237.380000,414.260000,212.160000,436.690000C186.940000,459.120000,176.660000,449.750000,156.100000,458.630000C135.540000,467.510000,142.790000,491.100000,182,504.180000C221.210000,517.260000,240,524.260000,262.820000,547.600000C285.640000,570.940000,327.760000,583.550000,348.770000,578.440000C369.780000,573.330000,375.600000,549.240000,412.990000,525.440000C450.380000,501.640000,433.760000,464.960000,452.920000,446.290000C472.080000,427.620000,507.100000,435.560000,426.770000,400.060000Z" fill="rgb(140,198,62)" fill-rule="evenodd" stroke="none" stroke-width="1"/><path id="burger-shop-01-path10" d="M426.770000,400.050000C426.770000,400.050000,398.260000,388.850000,374.440000,403.790000C350.620000,418.730000,282.900000,431.790000,282.900000,431.790000C282.900000,431.790000,237.380000,414.260000,212.160000,436.690000C211.760000,437.010000,211.390000,437.360000,211.020000,437.690000L210.940000,437.770000C210.570000,438.090000,210.200000,438.410000,209.830000,438.700000L209.830000,438.700000L208.740000,439.570000L208.630000,439.680000L207.630000,440.470000L207.570000,440.520000C207.200000,440.820000,206.860000,441.080000,206.510000,441.350000L206.510000,441.400000C206.160000,441.640000,205.820000,441.900000,205.510000,442.140000L205.430000,442.220000L204.430000,442.930000L204.330000,442.990000C204.010000,443.230000,203.690000,443.440000,203.400000,443.650000L203.320000,443.700000C203,443.940000,202.680000,444.150000,202.370000,444.370000L202.290000,444.420000C201.990000,444.600000,201.680000,444.820000,201.380000,445L201.310000,445.080000L200.380000,445.660000L200.380000,445.660000C200.083653,445.868454,199.772870,446.055592,199.450000,446.220000L199.350000,446.300000L198.530000,446.780000L198.420000,446.830000C198.130000,447.010000,197.860000,447.170000,197.570000,447.330000L197.470000,447.390000L196.650000,447.810000L196.570000,447.860000C196.270000,447.990000,196.010000,448.150000,195.720000,448.290000L195.610000,448.340000C195.350000,448.470000,195.110000,448.600000,194.840000,448.710000L194.740000,448.760000C194.481208,448.899691,194.214032,449.023260,193.940000,449.130000L193.840000,449.190000L193.100000,449.500000L192.960000,449.580000C192.700000,449.690000,192.460000,449.800000,192.190000,449.900000L192.090000,449.900000C191.850000,450,191.610000,450.080000,191.370000,450.190000L191.210000,450.240000C190.979182,450.344686,190.742054,450.434862,190.500000,450.510000L190.420000,450.510000C190.185128,450.613124,189.944766,450.703260,189.700000,450.780000L189.520000,450.830000C189.311326,450.913474,189.097563,450.983615,188.880000,451.040000L188.720000,451.100000C188.490000,451.180000,188.270000,451.230000,188.060000,451.310000L187.880000,451.360000C187.673603,451.413041,187.470011,451.476455,187.270000,451.550000L187.110000,451.550000L187.110000,451.550000C194.110000,495.850000,264.110000,530.630000,349.490000,530.630000C372.020060,530.705376,394.481959,528.151438,416.420000,523.020000C417.800000,522.020000,419.070000,521.020000,420.290000,520.020000L420.770000,519.620000C421.060000,519.380000,421.320000,519.120000,421.590000,518.880000C421.860000,518.640000,421.930000,518.590000,422.090000,518.430000L422.890000,517.690000C423.040000,517.530000,423.200000,517.400000,423.360000,517.240000C423.520000,517.080000,423.840000,516.730000,424.080000,516.500000L424.550000,516.020000C424.790000,515.780000,425,515.520000,425.240000,515.280000C425.480000,515.040000,425.530000,514.960000,425.690000,514.800000C425.850000,514.640000,426.120000,514.300000,426.330000,514.060000C426.540000,513.820000,426.650000,513.710000,426.780000,513.550000C426.910000,513.390000,427.180000,513.080000,427.360000,512.840000L427.810000,512.280000L428.370000,511.570000C428.500000,511.380000,428.630000,511.220000,428.770000,511.040000C428.910000,510.860000,429.140000,510.560000,429.300000,510.300000C429.460000,510.040000,429.560000,509.950000,429.690000,509.770000C429.820000,509.590000,430.010000,509.290000,430.200000,509.050000C430.390000,508.810000,430.440000,508.680000,430.570000,508.470000C430.700000,508.260000,430.890000,507.990000,431.020000,507.750000C431.144099,507.573544,431.257631,507.389889,431.360000,507.200000C431.520000,506.960000,431.680000,506.690000,431.810000,506.460000C431.940000,506.230000,432.050000,506.080000,432.160000,505.900000C432.270000,505.720000,432.420000,505.400000,432.560000,505.160000C432.700000,504.920000,432.770000,504.790000,432.870000,504.570000C432.970000,504.350000,433.140000,504.100000,433.270000,503.830000C433.400000,503.560000,433.460000,503.460000,433.560000,503.280000C433.660000,503.100000,433.800000,502.770000,433.930000,502.530000C434.003667,502.329475,434.093982,502.135465,434.200000,501.950000C434.300000,501.710000,434.440000,501.450000,434.540000,501.210000C434.640000,500.970000,434.700000,500.840000,434.780000,500.630000C434.860000,500.420000,435.020000,500.120000,435.130000,499.860000L435.360000,499.300000C435.477965,499.050700,435.578213,498.793396,435.660000,498.530000L435.890000,497.980000C436,497.710000,436.080000,497.480000,436.190000,497.210000C436.246763,497.018633,436.316936,496.831504,436.400000,496.650000C436.473047,496.392210,436.559838,496.138514,436.660000,495.890000L436.850000,495.300000C436.930000,495.040000,437.030000,494.770000,437.110000,494.510000C437.190000,494.250000,437.220000,494.160000,437.270000,494C437.320000,493.840000,437.460000,493.450000,437.540000,493.180000C437.620000,492.910000,437.640000,492.840000,437.700000,492.650000C437.760000,492.460000,437.830000,492.120000,437.910000,491.830000L438.070000,491.300000C438.157607,491.031480,438.227753,490.757575,438.280000,490.480000L438.410000,490.060000C438.490000,489.740000,438.570000,489.420000,438.650000,489.130000L438.700000,488.810000C438.810000,488.470000,438.890000,488.120000,438.970000,487.810000L439.020000,487.540000C439.100000,487.170000,439.180000,486.830000,439.260000,486.460000L439.260000,486.410000C440.340000,481.480000,441.110000,476.600000,441.960000,471.940000L441.960000,471.840000C442.020000,471.470000,442.100000,471.120000,442.150000,470.750000L442.230000,470.380000C442.280000,470.090000,442.340000,469.770000,442.410000,469.480000L442.470000,469.110000C442.470000,468.820000,442.600000,468.550000,442.650000,468.260000L442.730000,467.780000C442.790000,467.540000,442.870000,467.280000,442.920000,467.010000L443.020000,466.540000L443.180000,465.820000L443.290000,465.290000C443.364053,465.057120,443.424159,464.820033,443.470000,464.580000L443.610000,464.100000L443.770000,463.390000C443.820000,463.230000,443.870000,463.040000,443.920000,462.880000C443.970000,462.720000,444.030000,462.430000,444.110000,462.220000C444.143862,462.041144,444.187258,461.864225,444.240000,461.690000C444.320000,461.480000,444.380000,461.270000,444.450000,461.050000C444.480060,460.879123,444.526955,460.711641,444.590000,460.550000C444.670000,460.310000,444.750000,460.100000,444.800000,459.890000C444.850000,459.680000,444.930000,459.540000,444.980000,459.390000C445.030000,459.240000,445.120000,458.960000,445.200000,458.780000C445.280000,458.600000,445.330000,458.410000,445.380000,458.250000C445.430000,458.090000,445.540000,457.850000,445.620000,457.640000C445.700000,457.430000,445.750000,457.290000,445.810000,457.130000C445.870000,456.970000,445.990000,456.740000,446.070000,456.550000C446.123538,456.376888,446.193872,456.209424,446.280000,456.050000C446.357366,455.841306,446.447538,455.637586,446.550000,455.440000C446.630000,455.280000,446.680000,455.120000,446.760000,454.960000C446.840000,454.800000,446.950000,454.560000,447.050000,454.380000L447.290000,453.900000C447.398307,453.723045,447.495172,453.539335,447.580000,453.350000C447.681285,453.196615,447.771513,453.036209,447.850000,452.870000L448.160000,452.310000C448.260918,452.166827,448.351162,452.016421,448.430000,451.860000C448.560000,451.680000,448.670000,451.490000,448.800000,451.310000C448.887226,451.154122,448.984081,451.003831,449.090000,450.860000C449.200000,450.670000,449.330000,450.480000,449.460000,450.300000C449.590000,450.120000,449.650000,450.030000,449.750000,449.900000C449.850000,449.770000,450.020000,449.530000,450.180000,449.350000C450.340000,449.170000,450.360000,449.080000,450.470000,448.950000C450.580000,448.820000,450.790000,448.580000,450.920000,448.390000L451.240000,448.020000C451.400724,447.812680,451.577970,447.618713,451.770000,447.440000C451.858284,447.326027,451.955239,447.219042,452.060000,447.120000C452.320000,446.830000,452.620000,446.540000,452.910000,446.250000C472.060000,427.570000,507.090000,435.520000,426.760000,400.020000Z" fill="rgb(102,171,59)" fill-rule="evenodd" stroke="none" stroke-width="1"/><path id="burger-shop-01-path11" d="M428.100000,395.230000C416.590000,390.780000,403,390,391,392.140000C382.060000,393.770000,375,398.140000,367,402.220000C360.831402,405.248073,354.451337,407.824831,347.910000,409.930000C333.490000,414.830000,318.700000,418.680000,303.910000,422.150000Q296.080000,423.980000,288.200000,425.640000L283.700000,426.570000C283.100000,426.690000,279.950000,427.380000,282.930000,426.980000C285.170000,426.680000,283.400000,426.670000,282.100000,426.230000C280.150000,425.570000,278.180000,424.990000,276.200000,424.450000C270.091618,422.801556,263.867145,421.618170,257.580000,420.910000C241.850000,419.120000,224.640000,420.910000,211.670000,430.730000C204.220000,436.370000,197.670000,442.800000,188.670000,445.950000C182.290000,448.180000,175.590000,448.650000,168.970000,449.760000C157.770000,451.650000,142.970000,456.390000,140.370000,469.130000C137.640000,482.330000,149.570000,493.240000,159.610000,499.450000C176.610000,509.920000,197.020000,513.760000,215.300000,521.380000C230.162001,527.430327,243.764734,536.200376,255.410000,547.240000C261.780000,553.340000,267.960000,559.240000,275.410000,564.120000C283.341909,569.278318,291.815970,573.550559,300.680000,576.860000C315.060000,582.350000,331.610000,586.320000,347.050000,583.860000C360.290000,581.760000,369.370000,572.370000,378,562.860000C383.781545,556.331881,389.903382,550.113243,396.340000,544.230000C404.730000,536.770000,414.490000,531.350000,423.110000,524.230000C436.110000,513.540000,442.230000,498.600000,445.250000,482.440000C447.480000,470.490000,448.350000,456.830000,458.130000,448.310000C462.840000,444.210000,469.130000,441.550000,474.800000,438.310000C479.800000,435.440000,484.590000,430.610000,481.180000,424.510000C476.770000,416.630000,464.880000,412.190000,457.320000,408.510000C448.130000,404,438.770000,399.820000,429.410000,395.670000C423.580000,393.090000,418.480000,401.670000,424.360000,404.310000C438.890000,410.740000,454.200000,416.820000,467.610000,425.460000C468.822104,426.178590,469.966762,427.005288,471.030000,427.930000C471.500000,428.350000,471.910000,428.830000,472.370000,429.260000C472.070000,428.980000,472.900000,429.480000,472.670000,429.840000C472.576246,429.143962,472.559478,428.439712,472.620000,427.740000C472.740000,428.350000,472.770000,427.680000,472.620000,427.740000C472.280000,427.870000,471.170000,428.940000,472.240000,428.130000C467.600000,431.620000,461.840000,433.570000,456.980000,436.770000C448.272257,442.374371,441.978989,451.036534,439.340000,461.050000C435.660000,474.160000,435.560000,488.250000,429.340000,500.630000C420.790000,517.740000,402.340000,525.350000,388.640000,537.630000C377.920000,547.250000,369.470000,559.920000,357.920000,568.520000C347.750000,576.090000,334.630000,575.230000,322.790000,572.840000C306.041826,569.498228,290.207569,562.595679,276.360000,552.600000C269.520000,547.600000,263.980000,541.200000,257.630000,535.600000C252.134471,530.790090,246.236147,526.460861,240,522.660000C226.190000,514.200000,210.760000,508.660000,195.510000,503.440000C180.820000,498.440000,160.670000,493.680000,152.040000,479.200000C145.860000,468.830000,155.890000,463.350000,164.880000,460.860000C170.880000,459.200000,177.140000,458.800000,183.270000,457.670000C190.131629,456.394223,196.698505,453.861721,202.640000,450.200000C210.230000,445.540000,216.210000,438.520000,224.300000,434.710000C231.170000,431.480000,238.900000,430.360000,246.430000,430.300000C257.662440,430.317729,268.814022,432.199981,279.430000,435.870000C284.220000,437.480000,289.060000,435.680000,293.890000,434.640000C306.320000,431.960000,318.690000,428.990000,330.890000,425.590000C344.280000,421.860000,357.800000,417.750000,370.350000,411.690000C377.660000,408.160000,384,403.780000,392.120000,402.080000C399.850761,400.571360,407.803765,400.608746,415.520000,402.190000C418.893278,402.786494,422.206469,403.683398,425.420000,404.870000C431.440000,407.200000,434,397.530000,428.100000,395.230000Z" fill="rgb(97,0,0)" stroke="none" stroke-width="1"/><path id="burger-shop-01-path12" d="M364.900000,569.170000C352.630000,576.450000,329.270000,585.540000,318.750000,551.920000C308.230000,518.300000,306.850000,508.740000,284.890000,508.260000C262.930000,507.780000,257.810000,531.150000,236.320000,513.400000C214.830000,495.650000,217.750000,481.540000,207.020000,473.140000C196.290000,464.740000,204,446,196.740000,437.880000C189.480000,429.760000,177.370000,425,165,439C152.630000,453,147.170000,460.170000,145.240000,470C143.310000,479.830000,149,492.160000,170,503.600000C191,515.040000,227.860000,515.790000,254.830000,542.170000C281.800000,568.550000,302.680000,579.520000,324.410000,581.880000C339.190000,582.990000,354.900000,584.610000,364.890000,569.170000Z" fill="rgb(206,231,97)" fill-rule="evenodd" stroke="none" stroke-width="1"/><path id="burger-shop-01-path13" d="M147.270000,463.260000C146.345072,465.447541,145.654550,467.726933,145.210000,470.060000C143.270000,479.890000,148.990000,492.160000,170.010000,503.600000C191.030000,515.040000,227.870000,515.790000,254.840000,542.170000C281.810000,568.550000,302.690000,579.520000,324.420000,581.880000L325.740000,581.960000C320.740000,578.440000,316.260000,572.130000,313.020000,561.720000C302.510000,528.110000,301.100000,518.520000,279.160000,518.070000C257.220000,517.620000,252.060000,540.930000,230.570000,523.200000C209.080000,505.470000,212.030000,491.310000,201.270000,482.910000C190.510000,474.510000,198.270000,455.840000,190.990000,447.650000C183.710000,439.460000,171.620000,434.830000,159.250000,448.820000C154.160000,454.570000,150.250000,459.180000,147.250000,463.260000Z" fill="rgb(194,225,59)" fill-rule="evenodd" stroke="none" stroke-width="1"/><path id="burger-shop-01-path14" d="M362.380000,564.850000C356.980000,568.020000,350.910000,570.850000,344.540000,571.030000C335.870000,571.230000,330.110000,565.370000,326.460000,558.030000C321.220000,547.440000,319.360000,535.270000,314.940000,524.310000C312.280000,517.700000,308.860000,511.140000,302.550000,507.310000C295.870000,503.310000,286.700000,502.560000,279.170000,503.680000C270.120000,505.020000,263.820000,510.860000,255.620000,514.100000C245.190000,518.210000,234.700000,506.270000,229,499C223.300000,491.730000,220.940000,482.760000,215.710000,475.300000C213.300000,471.860000,209.130000,469.480000,207.360000,465.730000C205.260000,461.300000,205.590000,455.940000,205.360000,451.170000C204.830000,441.050000,201.650000,432.900000,192.240000,427.930000C181.370000,422.180000,170.070000,426.330000,162.070000,434.840000C154.490000,442.890000,146.350000,452.010000,142.250000,462.430000C133.970000,483.430000,151.430000,499.830000,168.890000,508.680000C188.890000,518.850000,212.050000,520.900000,231.960000,531.680000C244.700000,538.570000,254.030000,548.990000,264.960000,558.240000C274.320000,566.160000,284.390000,573.490000,295.530000,578.720000C304.815247,583.164308,314.805325,585.952867,325.050000,586.960000C335.610000,587.960000,347,588.450000,356.710000,583.450000C361.940000,580.750000,365.920000,576.540000,369.200000,571.720000C372.820000,566.380000,364.200000,561.370000,360.560000,566.670000C353.850000,576.550000,343.380000,577.990000,332.270000,577.450000C322.590778,577.142589,313.037227,575.166925,304.030000,571.610000C293.350000,567.240000,283.550000,560.610000,274.650000,553.340000C264.510000,545.060000,255.800000,535.110000,244.890000,527.790000C225.950000,515.090000,203.770000,511.100000,182.650000,503.680000C167.750000,498.440000,144.500000,485.510000,151.340000,466.520000C152.980113,462.394280,155.224663,458.535406,158,455.070000C161.920000,449.850000,166.230000,444.330000,171.060000,439.940000C174.700000,436.630000,179.230000,434.240000,184.230000,435.420000C188.230000,436.370000,192.830000,439.620000,194.230000,443.570000C197.430000,452.280000,194.230000,462.080000,198.660000,470.690000C200.660000,474.560000,204.130000,476.600000,206.740000,479.910000C208.960000,482.740000,210.400000,486.210000,211.910000,489.450000C216.640000,499.530000,222.740000,508.350000,231.230000,515.680000C238.520000,521.960000,247.230000,527.130000,257.140000,524.110000C264.500000,521.870000,270.260000,516.230000,277.690000,514.110000C283.790000,512.400000,292.930000,512.500000,298.320000,516.470000C304.470000,520.990000,306.710000,530.470000,308.900000,537.280000C312.650000,548.920000,315.110000,561.780000,323.240000,571.340000C335.120000,585.340000,353.340000,581.680000,367.360000,573.440000C373,570.220000,367.940000,561.580000,362.380000,564.850000Z" fill="rgb(97,0,0)" stroke="none" stroke-width="1"/></g></g><g id="burger-shop-01-greenpapper_to" transform="translate(351.350037,483.135986)"><g id="burger-shop-01-greenpapper" transform="translate(-351.350037,-483.135986)"><path id="burger-shop-01-path15" d="M405.480000,490.480000C406.930000,490.480000,408.480000,490.480000,409.980000,490.610000C409.738068,489.361068,409.614188,488.092142,409.610000,486.820000C409.610000,477.360000,416.290000,469.050000,427.070000,463.270000C427.180000,463.270000,427.260000,463.160000,427.360000,463.110000C437.220000,457.890000,450.680000,454.660000,465.360000,454.660000C480.230000,454.660000,493.760000,457.950000,503.650000,463.270000L503.650000,463.270000C514.460000,469.050000,521.110000,477.360000,521.110000,486.820000C521.006009,492.165412,518.974710,497.293377,515.390000,501.260000L515.390000,501.260000C514.045933,502.820862,512.563204,504.256732,510.960000,505.550000C516.714134,507.337586,522.143423,510.038725,527.040000,513.550000C534.380000,518.950000,538.700000,525.840000,538.700000,533.440000C538.700000,542.900000,532.030000,551.220000,521.220000,557.020000C521.140000,557.070000,521.030000,557.100000,520.950000,557.150000C511.070000,562.370000,497.640000,565.600000,482.950000,565.600000C472.957088,565.665051,463.022483,564.073487,453.550000,560.890000C445.910000,558.210000,439.500000,554.480000,434.950000,550.050000C430.911074,551.441081,426.772565,552.524180,422.570000,553.290000C416.922540,554.298302,411.196764,554.803616,405.460000,554.800000C390.590000,554.800000,377.030000,551.510000,367.150000,546.210000C356.360000,540.410000,349.690000,532.090000,349.690000,522.640000C349.690000,513.190000,356.360000,504.860000,367.150000,499.090000C367.243288,499.030761,367.340139,498.977326,367.440000,498.930000C377.290000,493.710000,390.730000,490.480000,405.440000,490.480000ZM411.200000,500.300000C409.420000,500.200000,407.520000,500.150000,405.480000,500.150000C392.310000,500.150000,380.480000,502.930000,371.960000,507.430000L371.720000,507.560000C364.090000,511.670000,359.350000,517.020000,359.350000,522.640000C359.350000,528.260000,364.090000,533.640000,371.720000,537.710000C380.280000,542.290000,392.200000,545.130000,405.480000,545.130000C410.649659,545.154253,415.810844,544.709092,420.900000,543.800000C425.552689,542.988004,430.107537,541.690928,434.490000,539.930000L434.490000,539.930000C436.451321,539.153967,438.689307,539.731642,440.030000,541.360000C443.470000,545.550000,449.300000,549.180000,456.720000,551.800000C465.190730,554.622970,474.071699,556.018648,483,555.930000C496.170000,555.930000,508,553.150000,516.550000,548.650000L516.760000,548.520000C524.420000,544.440000,529.130000,539.090000,529.130000,533.440000C529.130000,529.100000,526.270000,524.860000,521.420000,521.280000C515.810000,517.130000,507.670000,513.920000,498.110000,512.280000C496.496407,512.055184,495.106998,511.027247,494.420000,509.550000C493.319348,507.127551,494.371283,504.270388,496.780000,503.140000C501.079032,501.249675,504.932433,498.476317,508.090000,495L508.090000,495L508.090000,495C510.163748,492.755704,511.366197,489.843579,511.480000,486.790000C511.480000,481.170000,506.740000,475.790000,499.110000,471.720000L499.110000,471.720000C490.550000,467.130000,478.630000,464.300000,465.350000,464.300000C452.070000,464.300000,440.350000,467.080000,431.840000,471.590000C431.760000,471.640000,431.680000,471.660000,431.600000,471.720000C423.970000,475.820000,419.220000,481.170000,419.220000,486.790000C419.224450,487.886362,419.396435,488.975604,419.730000,490.020000C420.125830,491.206742,420.688105,492.331291,421.400000,493.360000L421.400000,493.360000C422.038624,494.330686,422.311527,495.496726,422.170000,496.650000C422.015731,497.917742,421.359542,499.070679,420.348336,499.850698C419.337130,500.630718,418.055367,500.972670,416.790000,500.800000C415.040000,500.590000,413.180000,500.410000,411.170000,500.270000Z" fill="rgb(206,231,97)" fill-rule="evenodd" stroke="none" stroke-width="1"/><path id="burger-shop-01-path16" d="M219.780000,436.480000C221.270000,436.480000,222.780000,436.480000,224.290000,436.590000C224.048295,435.351150,223.924409,434.092201,223.920000,432.830000C223.920000,423.350000,230.590000,415.050000,241.380000,409.250000C241.471825,409.196586,241.569030,409.153012,241.670000,409.120000C251.550000,403.900000,264.980000,400.670000,279.670000,400.670000C294.530000,400.670000,308.070000,403.950000,317.980000,409.250000L317.980000,409.250000C328.790000,415.050000,335.470000,423.350000,335.470000,432.830000C335.354159,438.169647,333.312012,443.287444,329.720000,447.240000L329.720000,447.240000C328.380626,448.785838,326.908325,450.211294,325.320000,451.500000C331.066909,453.313252,336.495580,456.012405,341.410000,459.500000C348.720000,464.900000,353.040000,471.760000,353.040000,479.390000C353.040000,488.850000,346.360000,497.170000,335.580000,502.940000C335.488388,502.993828,335.391138,503.037423,335.290000,503.070000C325.430000,508.320000,311.970000,511.520000,297.290000,511.520000C287.282775,511.601405,277.332330,510.009469,267.850000,506.810000C260.220000,504.130000,253.850000,500.430000,249.280000,495.970000C245.241238,497.384050,241.094261,498.467615,236.880000,499.210000C231.229364,500.219728,225.500141,500.725051,219.760000,500.720000C204.900000,500.720000,191.360000,497.430000,181.450000,492.130000C170.690000,486.420000,164,478.100000,164,468.640000C164,459.180000,170.680000,450.870000,181.460000,445.070000C181.551473,445.013262,181.648678,444.966336,181.750000,444.930000C191.610000,439.720000,205.070000,436.480000,219.750000,436.480000ZM225.510000,446.310000C223.730000,446.210000,221.820000,446.130000,219.780000,446.130000C206.640000,446.130000,194.780000,448.910000,186.270000,453.410000C186.203637,453.464172,186.129465,453.508000,186.050000,453.540000C178.400000,457.650000,173.660000,463,173.660000,468.640000C173.660000,474.280000,178.400000,479.640000,186.050000,483.720000C194.590000,488.300000,206.510000,491.130000,219.780000,491.130000C224.948791,491.143712,230.108741,490.702004,235.200000,489.810000C239.850972,488.980901,244.404752,487.677427,248.790000,485.920000L248.790000,485.920000C250.745466,485.115759,252.996933,485.688786,254.330000,487.330000C257.780000,491.540000,263.630000,495.170000,271.050000,497.760000C279.510469,500.599868,288.386043,502.005899,297.310000,501.920000C310.450000,501.920000,322.310000,499.140000,330.820000,494.640000L331.030000,494.500000C338.690000,490.400000,343.430000,485.050000,343.430000,479.430000C343.430000,475.060000,340.550000,470.850000,335.700000,467.250000C330.080000,463.090000,321.950000,459.880000,312.380000,458.250000C310.779136,458.017769,309.405056,456.990033,308.730000,455.520000C307.600201,453.100886,308.642756,450.223794,311.060000,449.090000C315.363584,447.255952,319.228784,444.529179,322.400000,441.090000L322.400000,441.090000C324.480425,438.849110,325.686975,435.935647,325.800000,432.880000C325.800000,427.240000,321.080000,421.880000,313.420000,417.780000L313.420000,417.780000C304.890000,413.200000,292.970000,410.360000,279.670000,410.360000C266.530000,410.360000,254.670000,413.140000,246.150000,417.650000C246.084658,417.700441,246.014285,417.744005,245.940000,417.780000C238.280000,421.890000,233.570000,427.240000,233.570000,432.880000C233.563516,433.976429,233.732312,435.066848,234.070000,436.110000C234.464955,437.291618,235.016535,438.414956,235.710000,439.450000L235.710000,439.450000C236.366348,440.401679,236.641173,441.565225,236.480000,442.710000C236.327590,443.974977,235.677479,445.127108,234.673465,445.911552C233.669451,446.695996,232.394278,447.048107,231.130000,446.890000C229.380000,446.650000,227.500000,446.490000,225.490000,446.360000Z" fill="rgb(206,231,97)" fill-rule="evenodd" stroke="none" stroke-width="1"/></g></g><g id="burger-shop-01-tomatoo_to" transform="translate(392.666962,454.278442)"><g id="burger-shop-01-tomatoo" transform="translate(-392.666962,-454.278442)"><path id="burger-shop-01-path17" d="M449.250000,540.440000C491.690000,540.440000,526.320000,521.870000,526.320000,499.080000C526.320000,476.290000,491.690000,457.760000,449.250000,457.760000C406.810000,457.760000,372.200000,476.330000,372.200000,499.080000C372.200000,521.830000,406.800000,540.440000,449.250000,540.440000Z" fill="rgb(226,53,36)" fill-rule="evenodd" stroke="none" stroke-width="1"/><path id="burger-shop-01-path18" d="M449.250000,529.920000C491.690000,529.920000,526.320000,512.330000,526.320000,490.770000C526.320000,469.210000,491.690000,451.590000,449.250000,451.590000C406.810000,451.590000,372.200000,469.180000,372.200000,490.770000C372.200000,512.360000,406.800000,529.920000,449.250000,529.920000Z" fill="rgb(253,118,88)" fill-rule="evenodd" stroke="none" stroke-width="1"/><path id="burger-shop-01-path19" d="M449.250000,459.750000C455.796152,459.740647,462.332925,460.245534,468.800000,461.260000C476.480000,462.320000,474.050000,467.380000,470.580000,470.050000L421.370000,508.570000C418.270000,511.090000,405.420000,518.240000,397.480000,513.020000C389.100000,507.510000,384.230000,500.460000,384.230000,492.940000C384.230000,474.610000,413.350000,459.750000,449.230000,459.750000ZM496,469.870000C507.310000,475.870000,514.280000,483.960000,514.280000,492.940000C514.280000,511.240000,485.160000,526.110000,449.280000,526.110000C442.865226,526.118500,436.459421,525.630375,430.120000,524.650000C415.760000,522.400000,420.370000,517.120000,426.460000,512.490000L475.080000,474.420000C478.740000,471.420000,484.780000,463.910000,496.080000,469.870000Z" fill="rgb(226,53,36)" fill-rule="evenodd" stroke="none" stroke-width="1"/><path id="burger-shop-01-path20" d="M453.460000,520.300000C456.290000,520.300000,458.600000,519.110000,458.600000,517.680000C458.600000,516.250000,456.290000,515.060000,453.460000,515.060000C450.630000,515.060000,448.320000,516.220000,448.320000,517.680000C448.320000,519.140000,450.620000,520.300000,453.460000,520.300000Z" fill="rgb(253,118,88)" fill-rule="evenodd" stroke="none" stroke-width="1"/><path id="burger-shop-01-path21" d="M500.170000,499.750000C502.980000,499.750000,505.280000,498.580000,505.280000,497.120000C505.280000,495.660000,502.980000,494.500000,500.170000,494.500000C497.360000,494.500000,495.030000,495.690000,495.030000,497.120000C495.030000,498.550000,497.330000,499.750000,500.170000,499.750000Z" fill="rgb(253,118,88)" fill-rule="evenodd" stroke="none" stroke-width="1"/><path id="burger-shop-01-path22" d="M476.800000,499.510000C479.640000,499.510000,481.940000,498.340000,481.940000,496.890000C481.940000,495.440000,479.640000,494.260000,476.800000,494.260000C473.960000,494.260000,471.660000,495.460000,471.660000,496.890000C471.660000,498.320000,473.970000,499.510000,476.800000,499.510000Z" fill="rgb(253,118,88)" fill-rule="evenodd" stroke="none" stroke-width="1"/><path id="burger-shop-01-path23" d="M409.080000,479.430000C411.920000,479.430000,414.220000,478.260000,414.220000,476.810000C414.220000,475.360000,411.920000,474.180000,409.080000,474.180000C406.240000,474.180000,403.940000,475.380000,403.940000,476.810000C403.940000,478.240000,406.250000,479.430000,409.080000,479.430000Z" fill="rgb(253,118,88)" fill-rule="evenodd" stroke="none" stroke-width="1"/><path id="burger-shop-01-path24" d="M406.270000,510.500000C409.110000,510.500000,411.410000,509.310000,411.410000,507.880000C411.410000,506.450000,409.110000,505.260000,406.270000,505.260000C403.430000,505.260000,401.160000,506.420000,401.160000,507.880000C401.160000,509.340000,403.460000,510.500000,406.270000,510.500000Z" fill="rgb(253,118,88)" fill-rule="evenodd" stroke="none" stroke-width="1"/><path id="burger-shop-01-path25" d="M427.470000,490C430.300000,490,432.610000,488.800000,432.610000,487.370000C432.610000,485.940000,430.300000,484.750000,427.470000,484.750000C424.640000,484.750000,422.330000,485.920000,422.330000,487.370000C422.330000,488.820000,424.630000,490,427.470000,490Z" fill="rgb(253,118,88)" fill-rule="evenodd" stroke="none" stroke-width="1"/><path id="burger-shop-01-path26" d="M483.110000,516.090000C485.940000,516.090000,488.250000,514.930000,488.250000,513.470000C488.250000,512.010000,485.940000,510.850000,483.110000,510.850000C480.280000,510.850000,478,512,478,513.470000C478,514.940000,480.300000,516.090000,483.140000,516.090000Z" fill="rgb(253,118,88)" fill-rule="evenodd" stroke="none" stroke-width="1"/><path id="burger-shop-01-path27" d="M443.870000,471.510000C446.700000,471.510000,449.010000,470.320000,449.010000,468.890000C449.010000,467.460000,446.700000,466.260000,443.870000,466.260000C441.040000,466.260000,438.750000,467.430000,438.750000,468.890000C438.750000,470.350000,441.060000,471.510000,443.870000,471.510000Z" fill="rgb(253,118,88)" fill-rule="evenodd" stroke="none" stroke-width="1"/><path id="burger-shop-01-path28" d="M336,456.160000C378.450000,456.160000,413.080000,437.590000,413.080000,414.830000C413.080000,392.070000,378.470000,373.510000,336,373.510000C293.530000,373.510000,259,392.080000,259,414.830000C259,437.580000,293.630000,456.160000,336.070000,456.160000Z" fill="rgb(226,53,36)" fill-rule="evenodd" stroke="none" stroke-width="1"/><path id="burger-shop-01-path29" d="M336,446.700000C378.450000,446.700000,413.080000,428.870000,413.080000,407.020000C413.080000,385.170000,378.470000,367.330000,336,367.330000C293.530000,367.330000,259,385.170000,259,407C259,428.830000,293.580000,446.700000,336,446.700000Z" fill="rgb(253,118,88)" fill-rule="evenodd" stroke="none" stroke-width="1"/><path id="burger-shop-01-path30" d="M336,375.470000C342.546758,375.465194,349.083696,375.976781,355.550000,377C363.260000,378.060000,360.820000,383.100000,357.320000,385.800000L308.150000,424.290000C305.050000,426.830000,292.150000,433.980000,284.250000,428.740000C275.880000,423.230000,270.980000,416.210000,270.980000,408.660000C270.980000,390.330000,300.090000,375.470000,335.980000,375.470000ZM382.760000,385.590000C394.080000,391.590000,401.050000,399.710000,401.050000,408.660000C401.050000,426.990000,371.930000,441.850000,336,441.850000C329.588751,441.863259,323.186158,441.378467,316.850000,440.400000C302.490000,438.120000,307.100000,432.870000,313.160000,428.210000L361.810000,390.210000C365.460000,387.210000,371.480000,379.690000,382.760000,385.630000Z" fill="rgb(226,53,36)" fill-rule="evenodd" stroke="none" stroke-width="1"/><path id="burger-shop-01-path31" d="M340.230000,436C343.040000,436,345.370000,434.840000,345.370000,433.380000C345.370000,431.920000,343.040000,430.790000,340.230000,430.790000C337.420000,430.790000,335.090000,431.950000,335.090000,433.380000C335.090000,434.810000,337.400000,436,340.230000,436Z" fill="rgb(253,118,88)" fill-rule="evenodd" stroke="none" stroke-width="1"/><path id="burger-shop-01-path32" d="M386.920000,415.490000C389.750000,415.490000,392.060000,414.300000,392.060000,412.870000C392.060000,411.440000,389.750000,410.250000,386.920000,410.250000C384.090000,410.250000,381.800000,411.410000,381.800000,412.870000C381.800000,414.330000,384.110000,415.490000,386.920000,415.490000Z" fill="rgb(253,118,88)" fill-rule="evenodd" stroke="none" stroke-width="1"/><path id="burger-shop-01-path33" d="M363.580000,415.260000C366.410000,415.260000,368.720000,414.090000,368.720000,412.630000C368.720000,411.170000,366.410000,410.010000,363.580000,410.010000C360.750000,410.010000,358.440000,411.200000,358.440000,412.630000C358.440000,414.060000,360.740000,415.260000,363.580000,415.260000Z" fill="rgb(253,118,88)" fill-rule="evenodd" stroke="none" stroke-width="1"/><path id="burger-shop-01-path34" d="M295.860000,395.180000C298.690000,395.180000,301,394.010000,301,392.550000C301,391.090000,298.690000,389.930000,295.860000,389.930000C293.030000,389.930000,290.720000,391.120000,290.720000,392.550000C290.720000,393.980000,293.020000,395.180000,295.860000,395.180000Z" fill="rgb(253,118,88)" fill-rule="evenodd" stroke="none" stroke-width="1"/><path id="burger-shop-01-path35" d="M293.050000,426.220000C295.880000,426.220000,298.190000,425.060000,298.190000,423.600000C298.190000,422.140000,295.880000,420.980000,293.050000,420.980000C290.220000,420.980000,287.910000,422.170000,287.910000,423.600000C287.910000,425.030000,290.210000,426.220000,293.050000,426.220000Z" fill="rgb(253,118,88)" fill-rule="evenodd" stroke="none" stroke-width="1"/><path id="burger-shop-01-path36" d="M314.240000,405.750000C317.080000,405.750000,319.380000,404.580000,319.380000,403.120000C319.380000,401.660000,317.080000,400.500000,314.240000,400.500000C311.400000,400.500000,309.100000,401.690000,309.100000,403.120000C309.100000,404.550000,311.410000,405.750000,314.240000,405.750000Z" fill="rgb(253,118,88)" fill-rule="evenodd" stroke="none" stroke-width="1"/><path id="burger-shop-01-path37" d="M369.880000,431.840000C372.720000,431.840000,375.020000,430.650000,375.020000,429.220000C375.020000,427.790000,372.720000,426.590000,369.880000,426.590000C367.040000,426.590000,364.740000,427.760000,364.740000,429.220000C364.740000,430.680000,367.050000,431.840000,369.880000,431.840000Z" fill="rgb(253,118,88)" fill-rule="evenodd" stroke="none" stroke-width="1"/><path id="burger-shop-01-path38" d="M330.640000,387.230000C333.480000,387.230000,335.780000,386.060000,335.780000,384.610000C335.780000,383.160000,333.480000,381.980000,330.640000,381.980000C327.800000,381.980000,325.500000,383.180000,325.500000,384.610000C325.500000,386.040000,327.810000,387.230000,330.640000,387.230000Z" fill="rgb(253,118,88)" fill-rule="evenodd" stroke="none" stroke-width="1"/><path id="burger-shop-01-path39" d="M418.090000,409.610000C417.530000,382.520000,384.450000,369.780000,362.290000,365.690000C332.160000,360.140000,294.810000,362.780000,269.690000,382.160000C261.080000,388.800000,254,398.300000,254,409.610000C254,415.810000,254,421.610000,256.560000,427.390000C258.830118,432.301185,262.095785,436.687191,266.150000,440.270000C289.270000,461.270000,326.430000,464.770000,355.960000,460.720000C372.090000,458.500000,388.770000,453.580000,401.900000,443.630000C407.060000,439.720000,411.810000,434.960000,414.770000,429.130000C418.040000,422.700000,417.900000,416.610000,418.140000,409.610000C418.370000,403.180000,408.370000,403.190000,408.140000,409.610000C407.970000,414.540000,408.490000,419.040000,406.350000,423.610000C404.261858,427.760805,401.288660,431.403057,397.640000,434.280000C388.290000,442.130000,376.070000,446.450000,364.310000,449.080000C337.740000,455.020000,305.860000,453.340000,281.900000,439.370000C274.140000,434.840000,265.760000,427.980000,264.210000,418.570000C262.660000,409.160000,264.850000,400.470000,271.620000,393.680000C290,375.270000,321.830000,371.850000,346.360000,373.620000C361.460000,374.710000,377.080000,378.260000,390.250000,385.950000C398.870000,390.950000,407.920000,398.800000,408.140000,409.570000C408.230000,416,418.230000,416.060000,418.090000,409.610000Z" fill="rgb(97,0,0)" stroke="none" stroke-width="1"/><path id="burger-shop-01-path40" d="M531.330000,492.840000C530.770000,465.740000,497.690000,453.010000,475.530000,448.920000C445.400000,443.370000,408.050000,446.010000,382.930000,465.390000C374.320000,472.030000,367.190000,481.530000,367.190000,492.840000C367.190000,499.040000,367.190000,504.840000,369.750000,510.620000C372.018607,515.532084,375.284491,519.918381,379.340000,523.500000C402.460000,544.500000,439.620000,548,469.150000,543.940000C485.280000,541.730000,501.950000,536.810000,515.090000,526.860000C520.240000,522.950000,525,518.180000,527.960000,512.360000C531.230000,505.930000,531.090000,499.840000,531.330000,492.840000C531.560000,486.410000,521.560000,486.410000,521.330000,492.840000C521.160000,497.770000,521.670000,502.270000,519.540000,506.840000C517.448582,510.988679,514.475921,514.630274,510.830000,517.510000C501.480000,525.360000,489.250000,529.680000,477.500000,532.310000C450.930000,538.250000,419.050000,536.560000,395.090000,522.590000C387.330000,518.070000,378.950000,511.210000,377.400000,501.800000C375.850000,492.390000,378.040000,483.700000,384.810000,476.910000C403.190000,458.500000,435.020000,455.070000,459.550000,456.840000C474.650000,457.930000,490.260000,461.490000,503.430000,469.180000C512.060000,474.180000,521.110000,482.030000,521.330000,492.800000C521.470000,499.270000,531.470000,499.290000,531.330000,492.840000Z" fill="rgb(97,0,0)" stroke="none" stroke-width="1"/><path id="burger-shop-01-path41" d="M386.920000,410.250000C389.780000,410.250000,392.060000,411.410000,392.060000,412.870000C392.060000,414.330000,389.780000,415.490000,386.920000,415.490000C384.060000,415.490000,381.800000,414.330000,381.800000,412.870000C381.800000,411.410000,384.080000,410.250000,386.920000,410.250000Z" fill="rgb(253,118,88)" fill-rule="evenodd" stroke="none" stroke-width="1"/><path id="burger-shop-01-path42" d="M363.580000,410C366.410000,410,368.720000,411.170000,368.720000,412.620000C368.720000,414.070000,366.410000,415.250000,363.580000,415.250000C360.750000,415.250000,358.440000,414.080000,358.440000,412.620000C358.440000,411.160000,360.740000,410,363.580000,410Z" fill="rgb(253,118,88)" fill-rule="evenodd" stroke="none" stroke-width="1"/><path id="burger-shop-01-path43" d="M295.860000,389.930000C298.690000,389.930000,301,391.100000,301,392.550000C301,394,298.690000,395.180000,295.860000,395.180000C293.030000,395.180000,290.720000,394.010000,290.720000,392.550000C290.720000,391.090000,293.020000,389.930000,295.860000,389.930000Z" fill="rgb(253,118,88)" fill-rule="evenodd" stroke="none" stroke-width="1"/><path id="burger-shop-01-path44" d="M293.050000,421C295.880000,421,298.190000,422.190000,298.190000,423.620000C298.190000,424.570000,297.190000,425.420000,295.700000,425.870000C293.150000,425.400000,290.610000,424.870000,288.120000,424.360000C287.987292,424.135598,287.914945,423.880659,287.910000,423.620000C287.910000,422.190000,290.210000,421,293.050000,421Z" fill="rgb(240,100,64)" fill-rule="evenodd" stroke="none" stroke-width="1"/><path id="burger-shop-01-path45" d="M314.240000,400.500000C317.080000,400.500000,319.380000,401.690000,319.380000,403.120000C319.380000,404.550000,317.080000,405.750000,314.240000,405.750000C311.400000,405.750000,309.100000,404.580000,309.100000,403.120000C309.100000,401.660000,311.410000,400.500000,314.240000,400.500000Z" fill="rgb(253,118,88)" fill-rule="evenodd" stroke="none" stroke-width="1"/><path id="burger-shop-01-path46" d="M369.880000,426.590000C372.720000,426.590000,375.020000,427.760000,375.020000,429.220000C375.034615,429.349589,375.034615,429.480411,375.020000,429.610000C371.790000,429.880000,368.530000,430.120000,365.240000,430.280000C364.962823,429.995306,364.802285,429.617149,364.790000,429.220000C364.790000,427.760000,367.100000,426.590000,369.930000,426.590000Z" fill="rgb(240,100,64)" fill-rule="evenodd" stroke="none" stroke-width="1"/><path id="burger-shop-01-path47" d="M330.640000,382C333.480000,382,335.780000,383.200000,335.780000,384.630000C335.780000,386.060000,333.480000,387.250000,330.640000,387.250000C327.800000,387.250000,325.500000,386.080000,325.500000,384.630000C325.500000,383.180000,327.810000,382,330.640000,382Z" fill="rgb(253,118,88)" fill-rule="evenodd" stroke="none" stroke-width="1"/></g></g><g id="burger-shop-01-patty_to" transform="translate(349.493958,320.160789)"><g id="burger-shop-01-patty" transform="translate(-349.493958,-315.160789)"><path id="burger-shop-01-path48" d="M349.450000,246C528.210000,246,512.450000,284.670000,512.450000,332.380000C512.450000,380.090000,439.450000,418.800000,349.450000,418.800000C259.450000,418.800000,186.450000,380.120000,186.450000,332.380000C186.450000,284.640000,170.690000,246,349.450000,246Z" fill="rgb(141,107,73)" fill-rule="evenodd" stroke="none" stroke-width="1"/><path id="burger-shop-01-path49" d="M349.450000,246C489.370000,246,510.120000,269.710000,512.530000,302.870000C512.530000,304.940000,512.450000,307.010000,512.450000,309.100000C512.450000,356.810000,439.450000,395.480000,349.450000,395.480000C259.450000,395.480000,186.450000,356.810000,186.450000,309.100000C186.450000,307.010000,186.450000,304.940000,186.370000,302.870000C188.790000,269.720000,209.540000,246,349.450000,246Z" fill="rgb(171,142,96)" fill-rule="evenodd" stroke="none" stroke-width="1"/><path id="burger-shop-01-path50" d="M349.450000,251C386.680000,251,425.450000,251.230000,461.820000,260.370000C471.330000,262.770000,480.820000,265.870000,489.200000,271.080000C494.671017,274.327837,499.245711,278.888783,502.510000,284.350000C503.892686,286.612519,504.927572,289.069951,505.580000,291.640000C505.990000,293.050000,506.330000,294.470000,506.580000,295.910000C506.869988,297.229500,507.080367,298.565244,507.210000,299.910000C507.791534,306.255718,507.955220,312.632805,507.700000,319C507.490000,327.770000,508.070000,336.780000,505.440000,345.240000C501.320000,358.460000,491.370000,369.240000,480.580000,377.540000C448.830000,401.870000,406,411.100000,366.870000,413.320000C324.070000,415.740000,278.340000,410.210000,239.660000,390.700000C225.590000,383.600000,211.780000,374.380000,202.170000,361.700000C194.630000,351.700000,191.600000,341.160000,191.430000,328.830000C191.260000,316.120000,190.010000,302.910000,193.330000,291.670000C194.882925,286.218817,197.813737,281.259509,201.840000,277.270000C207.110000,272,214.130000,268.130000,221.500000,265.270000C250.380000,254.080000,283.250000,252.700000,313.820000,251.620000C325.690000,251.200000,337.570000,251.040000,349.450000,251.030000C355.890000,251.030000,355.900000,241.030000,349.450000,241.030000C310.560000,241.030000,269.700000,241.260000,231.850000,251.430000C214.950000,255.980000,196.460000,263.630000,187.550000,279.720000C180.700000,292.080000,180.900000,306.570000,181.240000,320.280000C181.490000,330.380000,181.070000,340.500000,184.580000,350.170000C189.820000,364.620000,200.310000,376.260000,212.350000,385.500000C245.620000,411.030000,290.120000,420.860000,331.180000,423.290000C376.070000,425.940000,423.790000,419.790000,464.310000,399.350000C491.400000,385.690000,517.160000,363.080000,517.460000,330.620000C517.580000,316.850000,519.180000,302.420000,515.220000,289.010000C510.490000,273.010000,497.650000,262.920000,482.730000,256.710000C470.800000,251.710000,458.060000,248.940000,445.340000,246.910000C425.960000,243.810000,406.340000,242.420000,386.730000,241.680000C374.310000,241.210000,361.880000,241.040000,349.450000,241.030000C343,241,343,251,349.450000,251Z" fill="rgb(97,0,0)" stroke="none" stroke-width="1"/><path id="burger-shop-01-path51" d="M349.450000,384.240000C439.250000,384.240000,512.450000,345.430000,512.450000,297.850000C512.450000,250.270000,439.250000,211.470000,349.450000,211.470000C259.650000,211.470000,186.450000,250.270000,186.450000,297.850000C186.450000,345.430000,259.680000,384.240000,349.450000,384.240000Z" fill="rgb(114,72,30)" fill-rule="evenodd" stroke="none" stroke-width="1"/><path id="burger-shop-01-path52" d="M349.450000,389.240000C382.370000,389.140000,415.880000,384.400000,446.680000,372.450000C469.680000,363.540000,492.930000,350.450000,507.120000,329.630000C518.800000,312.520000,520.600000,291.370000,511.120000,272.840000C500.120000,251.260000,477.750000,236.750000,456.240000,227.230000C426.810000,214.230000,394.560000,208.100000,362.500000,206.740000C328.890000,205.320000,294.500000,209.050000,262.420000,219.600000C223.760000,232.330000,166.150000,266.450000,184.720000,316C192.930000,337.900000,212.770000,353.350000,232.910000,363.810000C260.610000,378.200000,291.770000,385.350000,322.710000,388.070000C331.600000,388.850000,340.510000,389.210000,349.420000,389.240000C355.860000,389.240000,355.870000,379.240000,349.420000,379.240000C318.480000,379.150000,287.340000,374.770000,258.210000,364.070000C236.980000,356.270000,214.330000,344.370000,200.970000,325.420000C190.460000,310.500000,188.310000,292.420000,197.280000,276.170000C208.120000,256.600000,229,243.930000,249,235.310000C276.690000,223.310000,307.270000,217.890000,337.280000,216.710000C368.610000,215.470000,400.340000,218.780000,430.330000,228.110000C464.520000,238.750000,522.110000,268.610000,504.390000,313.780000C496.590000,333.670000,476.980000,347.200000,458.610000,356.380000C432.390000,369.480000,402.770000,375.970000,373.680000,378.280000C365.630000,378.920000,357.570000,379.210000,349.490000,379.280000C343,379.250000,343,389.250000,349.450000,389.240000Z" fill="rgb(97,0,0)" stroke="none" stroke-width="1"/></g></g><g id="burger-shop-01-cheese_to" transform="translate(349.371719,257.353348)"><g id="burger-shop-01-cheese" transform="translate(-349.371719,-257.353348)"><path id="burger-shop-01-path53" d="M349.450000,197.470000C420.880000,197.470000,481.580000,221.810000,503.600000,255.720000C485.850000,256.300000,471.780000,264.220000,471.780000,273.890000C471.780000,277.890000,474.110000,281.520000,478.110000,284.490000L376,328L376,328L359.410000,335L327.800000,348.460000L204.900000,277.520000L204.900000,277.520000L189.080000,268.380000C191.192501,262.369942,194.250993,256.735699,198.140000,251.690000C202.780000,258.820000,215.390000,263.900000,230.200000,263.900000C248.990000,263.900000,264.200000,255.740000,264.200000,245.680000C264.200000,235.620000,249,227.450000,230.200000,227.450000C228.690000,227.450000,227.200000,227.510000,225.750000,227.610000C255.660000,209.150000,299.990000,197.470000,349.450000,197.470000ZM367.520000,255.530000C380.450000,255.530000,390.920000,261.150000,390.920000,268.090000C390.920000,275.030000,380.450000,280.650000,367.520000,280.650000C354.590000,280.650000,344.130000,275,344.130000,268.090000C344.130000,261.180000,354.590000,255.530000,367.520000,255.530000Z" fill="rgb(87,49,11)" fill-rule="evenodd" stroke="none" stroke-width="1"/><path id="burger-shop-01-path54" d="M224.350000,197L293.440000,172.870000C299.670000,177.050000,309.290000,179.760000,320.070000,179.760000C338.860000,179.760000,354.070000,171.600000,354.070000,161.530000C354.070000,157.270000,351.320000,153.320000,346.710000,150.220000L372.780000,139.120000L372.780000,139.120000L495.660000,210.060000L495.660000,210.060000L557.100000,240.290000L557.100000,245.560000L529.680000,257.210000C523.460000,253.430000,518.680000,251.040000,504.140000,251.040000C489.600000,251.040000,458.480000,269,468.100000,272L476.500000,274.620000L476.500000,279.890000L374.330000,323.310000L374.330000,323.310000L357.770000,330.380000L326.140000,343.810000L203.260000,272.870000L203.260000,272.870000L141.810000,237.370000L141.810000,232.130000L202,206.540000ZM365.910000,250.910000C378.810000,250.910000,389.300000,256.530000,389.300000,263.440000C389.300000,270.350000,378.810000,276,365.910000,276C353.010000,276,342.510000,270.380000,342.510000,263.440000C342.510000,256.500000,352.980000,250.910000,365.910000,250.910000ZM228.590000,222.800000C247.370000,222.800000,262.590000,230.960000,262.590000,241.030000C262.590000,251.100000,247.380000,259.250000,228.590000,259.250000C209.800000,259.250000,194.590000,251.090000,194.590000,241.030000C194.590000,230.970000,209.830000,222.800000,228.590000,222.800000Z" fill="rgb(255,221,128)" fill-rule="evenodd" stroke="none" stroke-width="1"/><path id="burger-shop-01-path55" d="M218.570000,199.470000L293.440000,167.600000C299.670000,171.810000,309.290000,174.510000,320.070000,174.510000C338.860000,174.510000,354.070000,166.350000,354.070000,156.290000C354.070000,151.990000,351.320000,148.070000,346.710000,144.950000L372.780000,133.850000L372.780000,133.850000L495.660000,204.850000L495.660000,204.850000L557.100000,240.320000L529.670000,252C523.450000,248.210000,514.310000,245.800000,504.130000,245.800000C485.370000,245.800000,470.130000,253.960000,470.130000,264.030000C470.130000,267.970000,472.470000,271.650000,476.470000,274.620000L374.330000,318.060000L374.330000,318.060000L357.770000,325.110000L326.140000,338.570000L203.260000,267.570000L203.260000,267.570000L141.810000,232.100000L202,206.540000ZM365.910000,245.640000C378.810000,245.640000,389.300000,251.250000,389.300000,258.190000C389.300000,265.130000,378.810000,270.720000,365.910000,270.720000C353.010000,270.720000,342.510000,265.110000,342.510000,258.190000C342.510000,251.270000,352.980000,245.640000,365.910000,245.640000ZM228.590000,217.560000C247.370000,217.560000,262.590000,225.720000,262.590000,235.780000C262.590000,245.840000,247.370000,254,228.590000,254C209.810000,254,194.590000,245.840000,194.590000,235.770000C194.590000,225.700000,209.830000,217.550000,228.590000,217.550000Z" fill="rgb(255,202,1)" fill-rule="evenodd" stroke="none" stroke-width="1"/><path id="burger-shop-01-path56" d="M498.180000,200.500000L441.060000,167.500000C419.460000,155.030000,398.140000,141.800000,376.160000,130.020000C371.950000,127.760000,367.790000,130.570000,363.760000,132.280000L344.180000,140.620000C340.370000,142.240000,341.520000,147.350000,344.180000,149.260000C345.290565,150.070629,346.318833,150.988367,347.250000,152L348.250000,144.150000L344.160000,145.890000C340.350000,147.510000,341.500000,152.620000,344.160000,154.530000C345.749668,155.524316,347.087864,156.872778,348.070000,158.470000C348.810000,159.920000,348.590000,157.970000,348.420000,158.760000C348.264510,159.178173,348.034075,159.564491,347.740000,159.900000C345.882711,162.053547,343.619699,163.820463,341.080000,165.100000C334.170000,168.670000,325.940000,169.680000,318.270000,169.480000C310.200000,169.260000,303.610000,167.060000,296.480000,163.610000C293.730000,162.280000,291.910000,162.840000,289.370000,163.920000L246,182.390000L225.420000,191.150000L221.900000,192.650000L220.700000,193.160000L215.880000,195.220000L183.450000,209L139.290000,227.780000C137.738461,228.661074,136.788482,230.315875,136.810000,232.100000C136.810000,235.680000,136.140000,239.350000,139.390000,241.720000C140.631089,242.522301,141.912798,243.259950,143.230000,243.930000L162.750000,255.210000L200.340000,277L263.900000,313.700000L308,339.120000L320.850000,346.540000C323.910000,348.310000,325.980000,349.260000,329.650000,347.710000Q360.330000,334.710000,390.960000,321.620000L476.960000,285.050000L478.960000,284.180000C480.511539,283.298926,481.461518,281.644125,481.440000,279.860000C481.605282,277.885190,481.575136,275.898884,481.350000,273.930000C480.480000,269.730000,475.760000,268.300000,474.980000,263.660000L473.700000,268.530000C481.520000,262.380000,492.990000,256.750000,503.020000,256.070000C508.261677,255.688468,513.530306,256.181874,518.610000,257.530000C522.100000,258.530000,525.480000,261.680000,528.950000,262.120000C530.950000,262.380000,533.140000,261.120000,534.950000,260.320000L544.440000,256.320000L559.520000,249.910000C561.067686,249.026336,562.013549,247.372032,561.990000,245.590000L561.990000,240.320000C561.992604,238.543451,561.052336,236.898933,559.520000,236L498.180000,200.500000C492.590000,197.280000,487.550000,205.910000,493.130000,209.130000L554.570000,244.600000L552.090000,240.290000L552.090000,245.560000L554.570000,241.240000L527.150000,252.900000L532.200000,252.900000C511.090000,240.150000,485.140000,246.960000,466.690000,261.460000C465.230000,262.600000,465.130000,264.690000,465.400000,266.320000C466.220000,271.210000,469.160000,275.080000,472.960000,278.130000L471.500000,274.590000L471.500000,279.860000L473.970000,275.550000Q414.740000,300.730000,355.490000,326Q339.560000,332.780000,323.620000,339.530000L328.620000,339.530000L251.330000,294.910000L189.210000,259L144.340000,233.080000L146.810000,237.390000L146.810000,232.150000L144.340000,236.470000L204.490000,210.880000Q212.090000,207.650000,219.690000,204.400000L226.690000,201.400000C224.500000,202.330000,227.310000,201.140000,228.190000,200.770000L262.830000,186L296,171.910000L290.950000,171.910000C305.100000,181.020000,325.690000,181.910000,341.200000,175.910000C347.320000,173.560000,353.620000,169.980000,356.950000,164.080000C361.180000,156.610000,355.230000,150.180000,349.250000,145.880000L349.250000,154.520000L353.340000,152.780000C356.430000,151.460000,356.340000,147,354.340000,144.920000C352.778465,143.327070,351.070989,141.884086,349.240000,140.610000L349.240000,149.250000L375.310000,138.150000L370.310000,138.150000L477.880000,200.270000L493.190000,209.110000C498.710000,212.360000,503.750000,203.720000,498.180000,200.500000Z" fill="rgb(97,0,0)" stroke="none" stroke-width="1"/><path id="burger-shop-01-path57" d="M365.910000,265.720000C359.840000,265.600000,350.330000,264.640000,347.350000,258.290000L347.350000,263.290000C350.290000,257.040000,359.850000,255.860000,365.910000,255.860000C371.970000,255.860000,381.520000,257.030000,384.470000,263.290000L384.470000,258.290000C381.470000,264.630000,371.980000,265.600000,365.910000,265.720000C359.480000,265.850000,359.460000,275.850000,365.910000,275.720000C372.360000,275.590000,379.220000,274.520000,385.060000,271.320000C388.590000,269.380000,393.780000,265.320000,393.780000,260.820000C393.780000,256.080000,388.170000,251.900000,384.460000,250.010000C378.682939,247.209875,372.329051,245.805511,365.910000,245.910000C359.701237,245.813742,353.550044,247.112328,347.910000,249.710000C344,251.610000,338,255.830000,338,260.820000C338,265.360000,343.170000,269.370000,346.720000,271.320000C352.560000,274.520000,359.300000,275.590000,365.880000,275.720000C372.460000,275.850000,372.340000,265.850000,365.910000,265.720000Z" fill="rgb(97,0,0)" stroke="none" stroke-width="1"/><path id="burger-shop-01-path58" d="M257.400000,237.080000C254.200000,247.170000,237.180000,249,228.590000,249C222.279657,249.098147,216.008225,247.995217,210.110000,245.750000C207.678467,244.832518,205.402009,243.547584,203.360000,241.940000C202.537999,241.286387,201.796181,240.537856,201.150000,239.710000C200.840000,239.310000,200.060000,237.450000,200.060000,238.400000C200.060000,236.480000,206.870000,232.400000,209.390000,231.320000C215.489060,228.869548,222.018194,227.669140,228.590000,227.790000C237.170000,227.790000,254.200000,229.640000,257.400000,239.730000C259.340000,245.840000,269,243.230000,267.040000,237.070000C263.480000,225.810000,250.790000,220.620000,240.040000,218.800000C226.860000,216.570000,211.160000,217.610000,199.690000,225.180000C195.690000,227.810000,191.840000,231.470000,190.370000,236.180000C188.900000,240.890000,192.810000,246.050000,196.280000,249.060000C206.360000,257.800000,221.760000,259.960000,234.600000,258.730000C246.850000,257.540000,262.830000,252.920000,267,239.730000C269,233.590000,259.340000,231,257.400000,237.080000Z" fill="rgb(97,0,0)" stroke="none" stroke-width="1"/><path id="burger-shop-01-path59" d="M229.380000,222.800000C236.641520,222.696914,243.846904,224.085576,250.550000,226.880000C256.640000,229.580000,260.880000,233.450000,262.150000,237.960000C262.255047,238.312337,262.255047,238.687663,262.150000,239.040000C260.880000,243.520000,256.640000,247.390000,250.570000,250.040000C236.971311,255.484165,221.798689,255.484165,208.200000,250.040000C202.110000,247.340000,197.870000,243.470000,196.630000,238.970000C196.519912,238.615006,196.519912,238.234994,196.630000,237.880000C197.920000,233.410000,202.140000,229.540000,208.200000,226.880000C214.913709,224.085911,222.128804,222.697345,229.400000,222.800000ZM248.770000,230.560000C236.309008,225.653018,222.450992,225.653018,209.990000,230.560000C205.300000,232.660000,201.990000,235.410000,200.870000,238.460000C202.010000,241.530000,205.300000,244.290000,209.960000,246.380000C222.431370,251.286889,236.298630,251.286889,248.770000,246.380000C253.460000,244.290000,256.770000,241.530000,257.860000,238.460000C256.750000,235.410000,253.460000,232.660000,248.770000,230.560000Z" fill="rgb(97,0,0)" stroke="none" stroke-width="1"/><path id="burger-shop-01-path60" d="M361.710000,151.410000C364.973882,150.510186,368.357993,152.386129,369.324356,155.630930C370.290719,158.875731,368.484363,162.297492,365.260000,163.330000C334.500000,172.600000,196.590000,237.130000,172.620000,248.390000L172.930000,286.090000C172.957614,289.514165,170.204165,292.312386,166.780000,292.340000C163.355835,292.367614,160.557614,289.614165,160.530000,286.190000L160.160000,244.900000C160.000346,242.361099,161.407800,239.982304,163.710000,238.900000C164.190000,238.660000,327.190000,161.900000,361.710000,151.450000ZM447.880000,172.100000C451.193708,171.257766,454.562766,173.261292,455.405000,176.575000C456.247234,179.888708,454.243708,183.257766,450.930000,184.100000C450.560000,184.210000,316.520000,218.380000,278.260000,253.770000C270.920000,260.580000,266.310000,261.850000,266.900000,262.460000C268.750000,264.460000,296.330000,255.680000,330.330000,244.870000C340.580000,241.580000,351.330000,238.140000,362.120000,234.870000C365.780000,233.750000,369.380000,232.670000,372.900000,231.580000C435.030000,212.580000,477.610000,199.580000,503.900000,202.970000C506.145304,203.199546,508.088497,204.631108,508.973233,206.707481C509.857969,208.783854,509.544467,211.176986,508.154750,212.955404C506.765033,214.733821,504.518667,215.616547,502.290000,215.260000C478.650000,212.190000,437.110000,224.910000,376.520000,243.450000C372.990000,244.540000,369.390000,245.620000,365.730000,246.730000C354.790000,250.100000,344.170000,253.460000,334.070000,256.730000C295.970000,268.870000,265.070000,278.730000,257.790000,270.930000C252.970000,265.710000,256.120000,257.450000,269.850000,244.730000C310.460000,207.170000,447.500000,172.260000,447.850000,172.150000ZM458.830000,238C461.898756,236.614860,465.512336,237.927464,466.976690,240.959220C468.441044,243.990975,467.222711,247.637419,464.230000,249.180000C463.810000,249.390000,319.540000,319.270000,309.820000,330.480000C300.820000,340.890000,301.450000,379.140000,301.450000,379.270000C301.485898,382.694165,298.739165,385.499101,295.315000,385.535000C291.890835,385.570898,289.085899,382.824165,289.050000,379.400000C289.050000,379.270000,288.300000,336.400000,300.440000,322.400000C311.860000,309.210000,458.440000,238.240000,458.830000,238.030000Z" fill="rgb(255,255,255)" fill-rule="evenodd" stroke="none" stroke-width="1"/><path id="burger-shop-01-path61" d="M365.850000,249.210000C370.748409,249.165336,375.597669,250.189106,380.060000,252.210000C384.300000,254.210000,387.400000,257.210000,388.640000,260.630000C388.830492,261.190935,388.830492,261.799065,388.640000,262.360000L388.640000,262.360000C387.400000,265.800000,384.300000,268.740000,380.060000,270.750000C371.022816,274.749919,360.717184,274.749919,351.680000,270.750000C347.440000,268.750000,344.340000,265.750000,343.100000,262.360000C342.894989,261.801554,342.894989,261.188446,343.100000,260.630000L343.100000,260.630000C344.340000,257.190000,347.440000,254.250000,351.680000,252.210000C356.128154,250.188964,360.964445,249.165049,365.850000,249.210000ZM378.390000,256.470000C370.411944,253.028693,361.368056,253.028693,353.390000,256.470000C350.943855,257.487679,348.870043,259.233312,347.450000,261.470000C348.860516,263.714997,350.937293,265.463126,353.390000,266.470000C361.365094,269.925619,370.414906,269.925619,378.390000,266.470000C380.841834,265.466007,382.916201,263.716962,384.320000,261.470000C382.906550,259.231426,380.835196,257.484922,378.390000,256.470000Z" fill="rgb(97,0,0)" stroke="none" stroke-width="1"/></g></g><g id="burger-shop-01-top-bun_to" transform="translate(347.230850,117.998203)"><g id="burger-shop-01-top-bun" transform="translate(-347.230850,-117.998203)"><path id="burger-shop-01-path62" d="M324.420000,19.250000C451.860000,-7.290000,497.770000,52.250000,507.520000,98.930000C517.270000,145.610000,453.690000,198.380000,365.520000,216.740000C277.350000,235.100000,198.120000,212.100000,188.370000,165.400000C178.620000,118.700000,197,45.800000,324.420000,19.250000Z" fill="rgb(235,164,24)" fill-rule="evenodd" stroke="none" stroke-width="1"/><path id="burger-shop-01-path63" d="M325.750000,24.070000C378.200000,13.280000,443.940000,11.850000,481.750000,56.620000C492.600000,69.460000,501.210000,86.620000,503.220000,103.470000C506.170000,128.310000,487.450000,150.180000,469.680000,164.930000C442.540000,187.450000,408.320000,201.360000,374.330000,209.630000C337.820000,218.520000,298.530000,221.520000,261.530000,213.780000C237.090000,208.670000,207.750000,197.850000,196.310000,173.620000C189.310000,158.880000,189.890000,139.180000,193.230000,123.620000C204.090000,73,252.090000,44.800000,298.230000,31C307.300000,28.280000,316.490000,26,325.750000,24.080000C332.040000,22.760000,329.380000,13.080000,323.090000,14.440000C268.220000,26,206.360000,52.120000,186.760000,109.540000C180.886256,127.134921,179.592223,145.936263,183,164.170000C187.890000,190.950000,211.070000,207.490000,235.100000,216.600000C270.270000,229.920000,309.980000,230.220000,346.770000,225.060000C386.030000,219.550000,425.480000,206.800000,458.890000,185.110000C481.890000,170.110000,506.200000,148.510000,512.150000,120.400000C516.310000,100.760000,508.810000,79.710000,498.590000,63.030000C468.290000,13.570000,407.160000,3.240000,353.590000,9.460000C343.320000,10.650000,333.140000,12.350000,323.020000,14.460000C316.790000,15.730000,319.450000,25.370000,325.750000,24.070000Z" fill="rgb(97,0,0)" stroke="none" stroke-width="1"/><path id="burger-shop-01-path64" d="M324.890000,21.530000C426.400000,0.390000,460.180000,34.380000,466,62.140000C471.820000,89.900000,419.560000,124.210000,349.370000,138.830000C279.180000,153.450000,217.610000,142.830000,211.840000,115.070000C206.070000,87.310000,223.440000,42.670000,324.940000,21.530000Z" fill="rgb(241,188,87)" fill-rule="evenodd" stroke="none" stroke-width="1"/><path id="burger-shop-01-path65" d="M291.750000,101.820000C293.840000,101.400000,295.700000,101.900000,295.930000,102.960000C296.160000,104.020000,294.640000,105.240000,292.540000,105.690000C290.440000,106.140000,288.600000,105.610000,288.380000,104.550000C288.160000,103.490000,289.660000,102.270000,291.750000,101.820000Z" fill="rgb(255,255,255)" fill-rule="evenodd" stroke="none" stroke-width="1"/><path id="burger-shop-01-path66" d="M305.710000,83C307.800000,82.570000,309.710000,83.080000,309.900000,84.140000C310.090000,85.200000,308.600000,86.410000,306.530000,86.840000C304.460000,87.270000,302.530000,86.780000,302.350000,85.700000C302.170000,84.620000,303.640000,83.420000,305.710000,83Z" fill="rgb(255,255,255)" fill-rule="evenodd" stroke="none" stroke-width="1"/><path id="burger-shop-01-path67" d="M252.880000,78.590000C254.970000,78.170000,256.880000,78.670000,257.070000,79.730000C257.260000,80.790000,255.770000,82.010000,253.700000,82.460000C251.630000,82.910000,249.750000,82.380000,249.520000,81.320000C249.290000,80.260000,250.810000,79.040000,252.880000,78.590000Z" fill="rgb(255,255,255)" fill-rule="evenodd" stroke="none" stroke-width="1"/><path id="burger-shop-01-path68" d="M255.580000,101.850000C257.680000,101.400000,259.530000,101.930000,259.770000,102.990000C260.010000,104.050000,258.470000,105.270000,256.380000,105.690000C254.290000,106.110000,252.430000,105.610000,252.220000,104.550000C252.010000,103.490000,253.520000,102.270000,255.580000,101.850000Z" fill="rgb(255,255,255)" fill-rule="evenodd" stroke="none" stroke-width="1"/><path id="burger-shop-01-path69" d="M268,83.570000C270.090000,83.120000,272,83.620000,272.190000,84.710000C272.380000,85.800000,270.890000,86.990000,268.820000,87.410000C266.750000,87.830000,264.820000,87.330000,264.630000,86.270000C264.440000,85.210000,265.930000,83.990000,268,83.570000Z" fill="rgb(255,255,255)" fill-rule="evenodd" stroke="none" stroke-width="1"/><path id="burger-shop-01-path70" d="M312.890000,94.190000C314.980000,93.770000,316.840000,94.270000,317.080000,95.330000C317.320000,96.390000,315.780000,97.610000,313.690000,98.060000C311.600000,98.510000,309.740000,97.980000,309.530000,96.920000C309.320000,95.860000,310.800000,94.640000,312.890000,94.190000Z" fill="rgb(255,255,255)" fill-rule="evenodd" stroke="none" stroke-width="1"/><path id="burger-shop-01-path71" d="M277.230000,67.440000C279.320000,67.010000,281.230000,67.520000,281.420000,68.580000C281.610000,69.640000,280.120000,70.850000,278.050000,71.300000C275.980000,71.750000,274.100000,71.230000,273.860000,70.170000C273.620000,69.110000,275.160000,67.890000,277.230000,67.440000Z" fill="rgb(255,255,255)" fill-rule="evenodd" stroke="none" stroke-width="1"/></g></g></svg>